<svg width="24" height="24" viewBox="0 0 24 24" fill="none" xmlns="http://www.w3.org/2000/svg">
<rect x="2" y="2" width="20" height="20" fill="#FFCA28"/>
<path d="M14.1429 18.634L15.6154 17.6597C15.7308 18.0222 16.4615 18.8833 17.3846 18.8833C18.3077 18.8833 18.7363 18.3791 18.7363 18.0449C18.7363 17.134 17.7937 16.8129 17.341 16.6586C17.2672 16.6335 17.2064 16.6128 17.1648 16.5947C17.1435 16.5854 17.1113 16.5731 17.0699 16.5573C16.5664 16.3649 14.7088 15.6552 14.7088 13.598C14.7088 11.332 16.8956 11.0714 17.3901 11.0714C17.7136 11.0714 19.2692 11.1111 20.044 12.567L18.6154 13.564C18.3022 12.9295 17.7818 12.7199 17.4615 12.7199C16.6703 12.7199 16.5055 13.3 16.5055 13.564C16.5055 14.3048 17.3651 14.6369 18.091 14.9173C18.2809 14.9906 18.4616 15.0605 18.6154 15.1331C19.4066 15.507 20.5714 16.1188 20.5714 18.0449C20.5714 19.0096 19.7623 20.5714 17.7253 20.5714C14.989 20.5714 14.2637 18.9286 14.1429 18.634Z" fill="#3E3E3E"/>
<path d="M7 18.8275L8.53477 17.8537C8.65503 18.216 9.12233 18.8841 9.80038 18.8841C10.4784 18.8841 10.8255 18.1877 10.8255 17.8537V11.2857H12.713V17.8537C12.7435 18.7596 12.2411 20.5714 10.0237 20.5714C7.985 20.5714 7.13744 19.3598 7 18.8275Z" fill="#3E3E3E"/>
</svg>
