<svg width="24" height="24" viewBox="0 0 24 24" fill="none" xmlns="http://www.w3.org/2000/svg">
<path fill-rule="evenodd" clip-rule="evenodd" d="M9.86885 2C8.29952 2 7.02732 3.23181 7.02732 4.75132V6.65608H11.9453V7.18518H4.84153C3.2722 7.18518 2 8.41699 2 9.9365L2 14.0635C2 15.583 3.2722 16.8148 4.84153 16.8148H6.48087V14.4868C6.48087 12.9673 7.75307 11.7354 9.3224 11.7354H14.5683C15.8962 11.7354 16.9727 10.6931 16.9727 9.4074V4.75132C16.9727 3.23181 15.7005 2 14.1311 2H9.86885ZM9.21311 5.38624C9.75634 5.38624 10.1967 4.95985 10.1967 4.43386C10.1967 3.90788 9.75634 3.48148 9.21311 3.48148C8.66988 3.48148 8.2295 3.90788 8.2295 4.43386C8.2295 4.95985 8.66988 5.38624 9.21311 5.38624Z" fill="#3E3E3E"/>
<path fill-rule="evenodd" clip-rule="evenodd" d="M14.1311 22C15.7005 22 16.9727 20.7682 16.9727 19.2487V17.3439L12.0546 17.3439L12.0546 16.8148L19.1585 16.8148C20.7278 16.8148 22 15.583 22 14.0635V9.93653C22 8.41702 20.7278 7.18521 19.1585 7.18521L17.5191 7.18521V9.51325C17.5191 11.0328 16.2469 12.2646 14.6776 12.2646L9.4317 12.2646C8.1038 12.2646 7.02733 13.3069 7.02733 14.5926L7.02733 19.2487C7.02733 20.7682 8.29952 22 9.86886 22H14.1311ZM14.7869 18.6138C14.2437 18.6138 13.8033 19.0402 13.8033 19.5662C13.8033 20.0921 14.2437 20.5185 14.7869 20.5185C15.3301 20.5185 15.7705 20.0921 15.7705 19.5662C15.7705 19.0402 15.3301 18.6138 14.7869 18.6138Z" fill="#797C83"/>
</svg>
